name rise45.9887peak57.8056fall74.9286.mot
datacolumns 19
datarows 32
range 13.66495000000000 13.71661200000000
endheader
time	ground_force1_vx	ground_force1_vy	ground_force1_vz	ground_force1_px	ground_force1_py	ground_force1_pz	ground_force2_vx	ground_force2_vy	ground_force2_vz	ground_force2_px	ground_force2_py	ground_force2_pz	ground_torque1_x	ground_torque1_y	ground_torque1_z	ground_torque2_x	ground_torque2_y	ground_torque2_z	
13.66495000000000	-6.61158200000000	41.40106800000000	-8.54767700000000	0.29165300000000	0.00000000000000	0.12421200000000	-37.57615900000000	790.67472599999996	-57.05347300000000	0.14396300000000	0.00000000000000	-0.06875800000000	0.00000000000000	-4.86831900000000	0.00000000000000	0.00000000000000	-19.92002700000000	0.00000000000000	
13.66661700000000	-7.19808500000000	48.52961400000000	-9.56990600000000	0.29802200000000	0.00000000000000	0.12525600000000	-38.02575800000000	788.56805099999997	-56.79015600000000	0.14321400000000	0.00000000000000	-0.06866500000000	0.00000000000000	-5.54772300000000	0.00000000000000	0.00000000000000	-19.80911900000000	0.00000000000000	
13.66829300000000	-7.64414700000000	55.74812100000000	-10.48286100000000	0.30388600000000	0.00000000000000	0.12620200000000	-38.49491700000000	786.34301000000005	-56.50521300000000	0.14247400000000	0.00000000000000	-0.06856700000000	0.00000000000000	-6.18404100000000	0.00000000000000	0.00000000000000	-19.69817200000000	0.00000000000000	
13.66995100000000	-7.93123200000000	62.96325100000000	-11.26351700000000	0.30931700000000	0.00000000000000	0.12706600000000	-38.98350300000000	783.99749599999996	-56.19853000000000	0.14174500000000	0.00000000000000	-0.06846500000000	0.00000000000000	-6.76233100000000	0.00000000000000	0.00000000000000	-19.58723500000000	0.00000000000000	
13.67161900000000	-8.04852800000000	70.10424600000000	-11.89676500000000	0.31437800000000	0.00000000000000	0.12785800000000	-39.49130100000000	781.52937099999997	-55.87001800000000	0.14102700000000	0.00000000000000	-0.06835900000000	0.00000000000000	-7.27188300000000	0.00000000000000	0.00000000000000	-19.47635000000000	0.00000000000000	
13.67329700000000	-7.99280700000000	77.12511100000000	-12.37548500000000	0.31911400000000	0.00000000000000	0.12859000000000	-40.01801200000000	778.93646400000000	-55.51960600000000	0.14032100000000	0.00000000000000	-0.06824800000000	0.00000000000000	-7.70643600000000	0.00000000000000	0.00000000000000	-19.36554400000000	0.00000000000000	
13.67495000000000	-7.76768700000000	84.00439900000001	-12.69994600000000	0.32356400000000	0.00000000000000	0.12927000000000	-40.56325400000000	776.21658100000002	-55.14724700000000	0.13962800000000	0.00000000000000	-0.06813300000000	0.00000000000000	-8.06401000000000	0.00000000000000	0.00000000000000	-19.25483600000000	0.00000000000000	
13.67661600000000	-7.38245800000000	90.74300300000000	-12.87671100000000	0.32776200000000	0.00000000000000	0.12990400000000	-41.12655700000000	773.36750500000005	-54.75291700000000	0.13894800000000	0.00000000000000	-0.06801300000000	0.00000000000000	-8.34640000000000	0.00000000000000	0.00000000000000	-19.14423400000000	0.00000000000000	
13.67830200000000	-6.85066500000000	97.36049800000001	-12.91721200000000	0.33173100000000	0.00000000000000	0.13049800000000	-41.70736300000000	770.38699699999995	-54.33661700000000	0.13828300000000	0.00000000000000	-0.06788800000000	0.00000000000000	-8.55845800000000	0.00000000000000	0.00000000000000	-19.03373200000000	0.00000000000000	
13.67994700000000	-6.18857000000000	103.89056900000000	-12.83617600000000	0.33549400000000	0.00000000000000	0.13105600000000	-42.30502700000000	767.27280699999994	-53.89837000000000	0.13763300000000	0.00000000000000	-0.06775900000000	0.00000000000000	-8.70723100000000	0.00000000000000	0.00000000000000	-18.92331300000000	0.00000000000000	
13.68162000000000	-5.41368000000000	110.37608500000000	-12.65005900000000	0.33906900000000	0.00000000000000	0.13158300000000	-42.91881300000000	764.02267199999994	-53.43822800000000	0.13699800000000	0.00000000000000	-0.06762600000000	0.00000000000000	-8.80107800000000	0.00000000000000	0.00000000000000	-18.81294900000000	0.00000000000000	
13.68329600000000	-4.54342100000000	116.86426600000000	-12.37560500000000	0.34247000000000	0.00000000000000	0.13208300000000	-43.54789800000000	760.63432899999998	-52.95626500000000	0.13637900000000	0.00000000000000	-0.06748800000000	0.00000000000000	-8.84882400000000	0.00000000000000	0.00000000000000	-18.70260000000000	0.00000000000000	
13.68494600000000	-3.59404600000000	123.40231600000000	-12.02864100000000	0.34571200000000	0.00000000000000	0.13255700000000	-44.19136600000000	757.10551299999997	-52.45258700000000	0.13577600000000	0.00000000000000	-0.06734500000000	0.00000000000000	-8.85901800000000	0.00000000000000	0.00000000000000	-18.59221300000000	0.00000000000000	
13.68661500000000	-2.57983600000000	130.03378699999999	-11.62313900000000	0.34880300000000	0.00000000000000	0.13300900000000	-44.84821400000000	753.43397100000004	-51.92732500000000	0.13519100000000	0.00000000000000	-0.06719700000000	0.00000000000000	-8.83934300000000	0.00000000000000	0.00000000000000	-18.48172600000000	0.00000000000000	
13.68829000000000	-1.51257700000000	136.79582900000000	-11.17059300000000	0.35175400000000	0.00000000000000	0.13344100000000	-45.51734800000000	749.61746400000004	-51.38064000000000	0.13462200000000	0.00000000000000	-0.06704500000000	0.00000000000000	-8.79619100000000	0.00000000000000	0.00000000000000	-18.37106200000000	0.00000000000000	
13.68995000000000	-0.40133600000000	143.71737300000001	-10.67969100000000	0.35457200000000	0.00000000000000	0.13385400000000	-46.19758400000000	745.65377799999999	-50.81272300000000	0.13407100000000	0.00000000000000	-0.06688900000000	0.00000000000000	-8.73441600000000	0.00000000000000	0.00000000000000	-18.26013500000000	0.00000000000000	
13.69162000000000	0.74753200000000	150.81822199999999	-10.15625600000000	0.35726400000000	0.00000000000000	0.13425100000000	-46.88765200000000	741.54073100000005	-50.22379700000000	0.13353700000000	0.00000000000000	-0.06672800000000	0.00000000000000	-8.65723900000000	0.00000000000000	0.00000000000000	-18.14884700000000	0.00000000000000	
13.69329600000000	1.93015400000000	158.10895099999999	-9.60341700000000	0.35983600000000	0.00000000000000	0.13463200000000	-47.58619500000000	737.27618199999995	-49.61411600000000	0.13302100000000	0.00000000000000	-0.06656300000000	0.00000000000000	-8.56630900000000	0.00000000000000	0.00000000000000	-18.03709100000000	0.00000000000000	
13.69495400000000	3.14478500000000	165.59148200000001	-9.02194400000000	0.36229300000000	0.00000000000000	0.13500000000000	-48.29177100000000	732.85804399999995	-48.98396700000000	0.13252200000000	0.00000000000000	-0.06639300000000	0.00000000000000	-8.46186200000000	0.00000000000000	0.00000000000000	-17.92474700000000	0.00000000000000	
13.69662700000000	4.39133400000000	173.26015699999999	-8.41071400000000	0.36463800000000	0.00000000000000	0.13535500000000	-49.00285300000000	728.28429000000006	-48.33367200000000	0.13204100000000	0.00000000000000	-0.06621900000000	0.00000000000000	-8.34296800000000	0.00000000000000	0.00000000000000	-17.81168600000000	0.00000000000000	
13.69829600000000	5.67087300000000	181.10314500000001	-7.76721700000000	0.36687600000000	0.00000000000000	0.13569800000000	-49.71783700000000	723.55296999999996	-47.66358600000000	0.13157800000000	0.00000000000000	-0.06604000000000	0.00000000000000	-8.20781900000000	0.00000000000000	0.00000000000000	-17.69777100000000	0.00000000000000	
13.69995300000000	6.98512500000000	189.10401500000000	-7.08809200000000	0.36901000000000	0.00000000000000	0.13603000000000	-50.43503900000000	718.66222200000004	-46.97409800000000	0.13113200000000	0.00000000000000	-0.06585800000000	0.00000000000000	-8.05404400000000	0.00000000000000	0.00000000000000	-17.58285500000000	0.00000000000000	
13.70161500000000	8.33601600000000	197.24332200000001	-6.36961800000000	0.37104300000000	0.00000000000000	0.13635300000000	-51.15269900000000	713.61028299999998	-46.26563400000000	0.13070200000000	0.00000000000000	-0.06567100000000	0.00000000000000	-7.87899800000000	0.00000000000000	0.00000000000000	-17.46678200000000	0.00000000000000	
13.70329500000000	9.72527300000000	205.50010200000000	-5.60815300000000	0.37297600000000	0.00000000000000	0.13666500000000	-51.86899000000000	708.39550699999995	-45.53865500000000	0.13029000000000	0.00000000000000	-0.06548100000000	0.00000000000000	-7.68003900000000	0.00000000000000	0.00000000000000	-17.34938900000000	0.00000000000000	
13.70495200000000	11.15412400000000	213.85316700000001	-4.80048500000000	0.37481200000000	0.00000000000000	0.13696900000000	-52.58201300000000	703.01637700000003	-44.79365700000000	0.12989400000000	0.00000000000000	-0.06528600000000	0.00000000000000	-7.45474600000000	0.00000000000000	0.00000000000000	-17.23050600000000	0.00000000000000	
13.70661700000000	12.62307000000000	222.28215499999999	-3.94409900000000	0.37655300000000	0.00000000000000	0.13726500000000	-53.28981000000000	697.47152200000005	-44.03117200000000	0.12951400000000	0.00000000000000	-0.06508800000000	0.00000000000000	-7.20109500000000	0.00000000000000	0.00000000000000	-17.10995800000000	0.00000000000000	
13.70828100000000	14.13176500000000	230.76831100000001	-3.03733700000000	0.37820000000000	0.00000000000000	0.13755300000000	-53.99036200000000	691.75973199999999	-43.25176900000000	0.12914900000000	0.00000000000000	-0.06488600000000	0.00000000000000	-6.91756900000000	0.00000000000000	0.00000000000000	-16.98756200000000	0.00000000000000	
13.70994600000000	15.67896400000000	239.29498000000001	-2.07948600000000	0.37975500000000	0.00000000000000	0.13783400000000	-54.68159700000000	685.87996999999996	-42.45604900000000	0.12879900000000	0.00000000000000	-0.06468000000000	0.00000000000000	-6.60322600000000	0.00000000000000	0.00000000000000	-16.86313300000000	0.00000000000000	
13.71161400000000	17.26255100000000	247.84785199999999	-1.07077500000000	0.38121900000000	0.00000000000000	0.13810800000000	-55.36139600000000	679.83139300000005	-41.64465200000000	0.12846400000000	0.00000000000000	-0.06447100000000	0.00000000000000	-6.25770900000000	0.00000000000000	0.00000000000000	-16.73648000000000	0.00000000000000	
13.71328000000000	18.87961800000000	256.41498100000001	-0.01232000000000	0.38259200000000	0.00000000000000	0.13837600000000	-56.02759500000000	673.61335699999995	-40.81824800000000	0.12814200000000	0.00000000000000	-0.06425900000000	0.00000000000000	-5.88122000000000	0.00000000000000	0.00000000000000	-16.60741100000000	0.00000000000000	
13.71495200000000	20.52658200000000	264.98662400000001	1.09398500000000	0.38387600000000	0.00000000000000	0.13863700000000	-56.67799500000000	667.22543700000006	-39.97754500000000	0.12783300000000	0.00000000000000	-0.06404300000000	0.00000000000000	-5.47446500000000	0.00000000000000	0.00000000000000	-16.47573100000000	0.00000000000000	
13.71661200000000	22.19932800000000	273.55496099999999	2.24560000000000	0.38507200000000	0.00000000000000	0.13889200000000	-57.31036400000000	660.66743299999996	-39.12328100000000	0.12753600000000	0.00000000000000	-0.06382500000000	0.00000000000000	-5.03858000000000	0.00000000000000	0.00000000000000	-16.34124400000000	0.00000000000000	
